<svg width="200" height="42" viewBox="0 0 200 42" fill="none" xmlns="http://www.w3.org/2000/svg">
<g clip-path="url(#clip0_1077_393)">
<path d="M30.1762 19.1509C28.2502 19.3692 26.3068 20.9633 26.3057 22.9056C26.3057 24.7616 26.3057 31.2698 26.3057 32.7077C26.2928 33.75 25.894 34.7506 25.1864 35.516C24.4788 36.2814 23.5127 36.7575 22.4746 36.8522C22.4746 36.8609 22.4746 36.8675 22.4746 36.8762C22.4926 37.9996 22.9514 39.0709 23.7522 39.859C24.553 40.6471 25.6315 41.0888 26.755 41.0888C27.8785 41.0888 28.957 40.6471 29.7578 39.859C30.5586 39.0709 31.0175 37.9996 31.0354 36.8762C31.0354 32.5658 28.5625 27.3055 28.5625 21.8585C28.7321 20.782 29.31 19.8123 30.1762 19.1509Z" fill="#FB6C00"/>
<path d="M26.9139 19.8409C26.9912 19.8392 27.0663 19.8147 27.1298 19.7705C27.1933 19.7263 27.2423 19.6643 27.2707 19.5923C27.2991 19.5204 27.3057 19.4416 27.2895 19.366C27.2734 19.2903 27.2353 19.2211 27.18 19.167C27.1247 19.1129 27.0547 19.0763 26.9787 19.0619C26.9027 19.0474 26.8241 19.0557 26.7528 19.0857C26.6815 19.1157 26.6206 19.166 26.5778 19.2305C26.535 19.2949 26.5121 19.3705 26.5121 19.4479C26.5127 19.5001 26.5235 19.5516 26.544 19.5996C26.5645 19.6476 26.5943 19.6911 26.6316 19.7276C26.6689 19.7641 26.713 19.7929 26.7614 19.8124C26.8099 19.8318 26.8617 19.8415 26.9139 19.8409Z" fill="#FB6C00"/>
<path d="M27.9806 19.2384C28.058 19.2367 28.1331 19.2122 28.1966 19.1679C28.2601 19.1237 28.3091 19.0618 28.3375 18.9898C28.3659 18.9178 28.3724 18.8391 28.3563 18.7634C28.3402 18.6878 28.3021 18.6186 28.2468 18.5645C28.1915 18.5104 28.1214 18.4738 28.0454 18.4593C27.9694 18.4449 27.8909 18.4531 27.8195 18.4831C27.7482 18.5131 27.6874 18.5635 27.6445 18.6279C27.6017 18.6923 27.5789 18.768 27.5789 18.8453C27.5794 18.8975 27.5903 18.9491 27.6108 18.9971C27.6313 19.0451 27.661 19.0886 27.6983 19.1251C27.7356 19.1616 27.7798 19.1904 27.8282 19.2098C27.8767 19.2293 27.9284 19.239 27.9806 19.2384Z" fill="#FB6C00"/>
<path d="M29.0844 18.7928C29.1617 18.7911 29.2369 18.7666 29.3003 18.7224C29.3638 18.6782 29.4128 18.6162 29.4412 18.5442C29.4697 18.4723 29.4762 18.3936 29.4601 18.3179C29.4439 18.2422 29.4058 18.173 29.3505 18.1189C29.2952 18.0648 29.2252 18.0282 29.1492 18.0138C29.0732 17.9993 28.9946 18.0076 28.9233 18.0376C28.852 18.0676 28.7911 18.1179 28.7483 18.1824C28.7055 18.2468 28.6826 18.3224 28.6826 18.3998C28.6832 18.452 28.694 18.5035 28.7145 18.5515C28.735 18.5995 28.7648 18.643 28.8021 18.6795C28.8394 18.716 28.8835 18.7448 28.932 18.7643C28.9804 18.7837 29.0322 18.7934 29.0844 18.7928Z" fill="#FB6C00"/>
<path d="M0 29.1934C0.00838398 29.6606 0.108708 30.1216 0.295243 30.55C0.481778 30.9784 0.750872 31.3659 1.08716 31.6903C1.42345 32.0147 1.82034 32.2697 2.25519 32.4408C2.69003 32.6118 3.1543 32.6955 3.6215 32.6871C3.88718 32.6876 4.15215 32.6598 4.41196 32.6042C6.28614 32.1968 8.19865 31.9918 10.1166 31.9928C14.4713 31.9835 18.7604 33.0537 22.6002 35.1077C21.491 33.9842 14.7982 25.0315 3.61713 25.6996C2.6745 25.6844 1.76433 26.0437 1.08624 26.6987C0.408153 27.3536 0.0175125 28.2508 0 29.1934H0ZM2.45873 29.3997C2.73554 28.8666 3.12818 28.4022 3.60786 28.0406C4.08753 27.679 4.64208 27.4294 5.23081 27.31V27.3242C4.74686 27.8199 4.38404 28.4208 4.17067 29.0798C4.14913 29.1456 4.14578 29.2159 4.16096 29.2833C4.17615 29.3508 4.20931 29.4129 4.25692 29.4631C4.73346 29.9742 5.31998 30.3703 5.97214 30.6215V30.6357C5.38312 30.7679 4.77219 30.7687 4.18284 30.6379C3.59349 30.5072 3.04023 30.248 2.56245 29.879C2.49169 29.824 2.44253 29.7458 2.42356 29.6582C2.4046 29.5706 2.41705 29.4791 2.45873 29.3997Z" fill="#FB6C00"/>
<path d="M4.33319 20.9841C4.49615 21.0099 4.66065 21.0248 4.82559 21.0288C5.88165 21.0491 6.93511 21.141 7.97871 21.304C11.2101 21.8351 14.2936 23.0398 17.0292 24.8398C19.7649 26.6399 22.0914 28.995 23.8578 31.7525C23.1845 27.1419 21.0479 22.8695 17.7629 19.565C14.4779 16.2605 10.2182 14.0988 5.61169 13.3983C4.61069 13.2432 3.58898 13.4905 2.76971 14.0862C1.95043 14.6818 1.40015 15.5775 1.23904 16.5776C1.15135 17.0702 1.16193 17.5753 1.27016 18.0639C1.3784 18.5524 1.58216 19.0148 1.86971 19.4243C2.15727 19.8338 2.52295 20.1824 2.94573 20.4501C3.36851 20.7178 3.84003 20.8993 4.33319 20.9841ZM3.72397 16.8571C4.16567 16.4363 4.69722 16.1215 5.27845 15.9363C5.85968 15.7512 6.47539 15.7005 7.07907 15.7882V15.8024C6.43773 16.1234 5.87773 16.586 5.44137 17.1551C5.39691 17.2124 5.36793 17.2801 5.35722 17.3518C5.34651 17.4235 5.35444 17.4968 5.38023 17.5646C5.63201 18.2334 6.03348 18.8358 6.55391 19.3256V19.3398C5.95056 19.2556 5.37452 19.0342 4.86997 18.6928C4.36542 18.3514 3.94576 17.899 3.64318 17.3702C3.5972 17.288 3.58017 17.1927 3.59482 17.0997C3.60947 17.0066 3.65495 16.9212 3.72397 16.8571Z" fill="#FB6C00"/>
<path d="M11.5884 7.75593C11.3942 8.51177 11.4587 9.31085 11.7715 10.0258C12.0844 10.7407 12.6276 11.3303 13.3145 11.7006C18.5828 14.7289 22.6172 19.5147 24.7107 25.2192C25.1108 21.7663 24.7751 18.2678 23.7258 14.954C22.6766 11.6401 20.9374 8.58602 18.6228 5.99267C18.0121 5.29115 17.1801 4.81928 16.2646 4.65522C15.2336 4.44964 14.1632 4.66034 13.2871 5.24129C12.4109 5.82224 11.8003 6.72625 11.5884 7.75593ZM14.9096 7.37271C15.5392 7.34171 16.1678 7.45012 16.7506 7.69019C17.3334 7.93026 17.856 8.29606 18.2811 8.76147L18.2702 8.7713C17.5543 8.59549 16.808 8.5828 16.0866 8.73418C16.015 8.74844 15.9485 8.78141 15.8939 8.82975C15.8392 8.87808 15.7983 8.94004 15.7754 9.00931C15.5467 9.69289 15.4813 10.4205 15.5844 11.134L15.5734 11.1438C15.1475 10.691 14.8307 10.1468 14.6473 9.5528C14.464 8.9588 14.4189 8.33073 14.5155 7.71662C14.5313 7.62259 14.5793 7.53694 14.6511 7.47424C14.723 7.41155 14.8143 7.37567 14.9096 7.37271Z" fill="#FB6C00"/>
<path d="M27.9653 0.936523C27.4332 0.957096 26.9107 1.08411 26.4286 1.31006C25.9465 1.53602 25.5145 1.85632 25.1583 2.25205C24.802 2.64778 24.5287 3.1109 24.3545 3.61404C24.1803 4.11719 24.1087 4.65015 24.144 5.18144C24.144 7.41635 27.9653 16.689 27.9653 16.689C27.9653 16.689 31.7866 7.41635 31.7866 5.18144C31.8217 4.65019 31.75 4.11729 31.5758 3.6142C31.4015 3.11112 31.1282 2.64806 30.772 2.25236C30.4158 1.85667 29.9839 1.53636 29.5018 1.31036C29.0198 1.08436 28.4973 0.957244 27.9653 0.936523V0.936523ZM29.7733 6.25686C29.3588 5.65505 28.812 5.1561 28.1749 4.79821C28.1109 4.76174 28.0385 4.74257 27.9648 4.74257C27.8911 4.74257 27.8186 4.76174 27.7546 4.79821C27.1164 5.15592 26.5686 5.65486 26.1529 6.25686H26.1376C26.1355 5.63276 26.2752 5.01634 26.546 4.45407C26.8168 3.8918 27.2118 3.39835 27.7011 3.01094C27.776 2.95133 27.869 2.91888 27.9648 2.91888C28.0605 2.91888 28.1535 2.95133 28.2284 3.01094C28.7172 3.39863 29.1115 3.89221 29.3818 4.45447C29.6521 5.01674 29.7912 5.63302 29.7886 6.25686H29.7733Z" fill="#FB6C00"/>
<path d="M39.6662 4.65624C38.7504 4.81977 37.918 5.29126 37.3068 5.9926C34.9934 8.58628 33.2553 11.6404 32.207 14.954C31.1586 18.2677 30.8238 21.7657 31.2244 25.2181C33.3171 19.5146 37.3499 14.7293 42.6163 11.7005C43.3032 11.3302 43.8464 10.7406 44.1592 10.0257C44.4721 9.31078 44.5366 8.51169 44.3424 7.75585C44.1303 6.72638 43.5195 5.82264 42.6434 5.24191C41.7673 4.66118 40.697 4.45064 39.6662 4.65624ZM41.4131 7.71327C41.5095 8.32746 41.4642 8.95556 41.2806 9.54955C41.0971 10.1435 40.7802 10.6877 40.3541 11.1404L40.3431 11.1306C40.4465 10.4173 40.3815 9.68964 40.1532 9.00596C40.1301 8.93689 40.0891 8.87516 40.0345 8.82703C39.9798 8.7789 39.9134 8.74609 39.842 8.73192C39.1205 8.58054 38.3743 8.59323 37.6584 8.76904L37.6475 8.75922C38.0726 8.2938 38.5952 7.928 39.178 7.68793C39.7608 7.44786 40.3894 7.33946 41.019 7.37045C41.1143 7.3738 41.2055 7.41014 41.277 7.47327C41.3484 7.53639 41.3958 7.62238 41.4109 7.71655L41.4131 7.71327Z" fill="#FB6C00"/>
<path d="M54.6914 16.5777C54.53 15.5779 53.9797 14.6825 53.1604 14.087C52.3412 13.4915 51.3196 13.2444 50.3188 13.3995C45.7118 14.0997 41.4517 16.2615 38.1664 19.5662C34.8811 22.871 32.7445 27.1438 32.0715 31.7548C34.1056 28.529 36.9102 25.8597 40.2325 23.9873C43.5549 22.115 47.2908 21.0983 51.1038 21.029C51.2688 21.0239 51.4333 21.0079 51.5962 20.9809C52.0891 20.8963 52.5604 20.715 52.9831 20.4476C53.4057 20.1802 53.7714 19.8319 54.059 19.4227C54.3466 19.0135 54.5506 18.5515 54.6591 18.0633C54.7676 17.5751 54.7786 17.0702 54.6914 16.5777ZM52.2895 17.3704C51.9874 17.8992 51.5682 18.3518 51.064 18.6934C50.5598 19.0351 49.984 19.2566 49.3809 19.3411V19.3269C49.9005 18.8376 50.3012 18.236 50.5524 17.568C50.5783 17.5002 50.5863 17.427 50.5756 17.3552C50.5649 17.2835 50.5358 17.2158 50.4913 17.1586C50.0548 16.5895 49.4948 16.127 48.8536 15.8058V15.7916C49.4577 15.7027 50.0741 15.7525 50.6561 15.9371C51.2382 16.1217 51.7706 16.4364 52.213 16.8572C52.281 16.9222 52.3251 17.0081 52.3384 17.1011C52.3517 17.1942 52.3333 17.289 52.2862 17.3704H52.2895Z" fill="#FB6C00"/>
<path d="M52.309 25.7006C41.1279 25.0324 34.4341 33.9852 33.3259 35.1075C37.1669 33.0521 41.4576 31.9812 45.8139 31.9905C47.7319 31.9896 49.6444 32.1946 51.5186 32.6019C51.7784 32.6574 52.0433 32.6853 52.309 32.6848C53.2356 32.6848 54.1243 32.3168 54.7795 31.6615C55.4347 31.0063 55.8028 30.1177 55.8028 29.1911C55.8028 28.2645 55.4347 27.3758 54.7795 26.7206C54.1243 26.0654 53.2356 25.6973 52.309 25.6973V25.7006ZM53.3637 29.8811C52.886 30.2502 52.3327 30.5093 51.7433 30.6401C51.154 30.7709 50.543 30.7701 49.954 30.6377V30.6246C50.6062 30.3735 51.1927 29.9774 51.6692 29.4662C51.7168 29.4161 51.75 29.354 51.7652 29.2865C51.7804 29.219 51.777 29.1487 51.7555 29.083C51.5424 28.4238 51.1795 27.8229 50.6953 27.3274V27.3132C51.2837 27.4325 51.8379 27.6818 52.3173 28.043C52.7968 28.4042 53.1894 28.8681 53.4663 29.4007C53.5076 29.4802 53.5198 29.5716 53.5009 29.6591C53.4819 29.7466 53.433 29.8247 53.3626 29.88L53.3637 29.8811Z" fill="#FB6C00"/>
<path d="M162.198 29.6936V13.3264H165.952V29.6925L162.198 29.6936Z" fill="#FB6C00"/>
<path d="M142.993 13.3264H147.032L152.164 25.5218L157.413 13.3264H161.235L154.107 29.6925H150.406L142.993 13.3264Z" fill="#FB6C00"/>
<path d="M136.118 13.3264C136.291 13.3417 136.462 13.3493 136.628 13.3493C136.794 13.3493 136.965 13.357 137.139 13.3723C137.785 13.4026 138.427 13.5022 139.053 13.6692C139.673 13.8341 140.242 14.1559 140.702 14.6038C141.125 14.9887 141.455 15.4638 141.668 15.9937C141.88 16.5171 142.012 17.069 142.062 17.6314C142.062 17.7406 142.062 17.8443 142.074 17.9502C142.086 18.0561 142.086 18.1631 142.086 18.269C142.127 19.3132 141.84 20.3442 141.266 21.2168C140.64 22.0868 139.7 22.6795 138.645 22.8698L142.897 29.6848H138.857L135.095 23.2651H130.867V29.6936H127.28V13.3264H136.118ZM135.263 16.2448H130.867V20.3707H135.263C135.292 20.3854 135.325 20.3933 135.358 20.3936H135.453C136.158 20.4026 136.859 20.2919 137.527 20.0661C138.153 19.8477 138.457 19.2654 138.441 18.3192C138.441 17.3468 138.114 16.7616 137.459 16.5636C136.744 16.3581 136.004 16.2581 135.261 16.2666L135.263 16.2448Z" fill="#FB6C00"/>
<path d="M108.551 17.9971C108.892 16.933 109.49 15.9693 110.292 15.1912C111.147 14.4244 112.187 13.8938 113.309 13.6518C113.764 13.5499 114.234 13.4698 114.72 13.4116C115.203 13.3536 115.689 13.3244 116.175 13.3242C116.699 13.3101 117.223 13.332 117.744 13.3898C118.26 13.445 118.771 13.5399 119.272 13.6736C120.383 13.9119 121.411 14.4392 122.253 15.2021C123.054 15.9784 123.64 16.9489 123.954 18.019C124.269 19.1271 124.43 20.2733 124.432 21.4254C124.434 22.0385 124.398 22.6511 124.323 23.2596C124.251 23.8368 124.129 24.4067 123.958 24.9628C123.65 26.0513 123.052 27.0359 122.229 27.8124C121.363 28.5717 120.311 29.0878 119.181 29.3082C118.686 29.426 118.184 29.5099 117.678 29.5593C117.162 29.6102 116.639 29.6361 116.107 29.6368C115.636 29.6366 115.165 29.6074 114.697 29.5495C114.227 29.4912 113.765 29.4112 113.31 29.3093C112.187 29.0864 111.143 28.5703 110.284 27.8135C109.46 27.0374 108.863 26.0526 108.554 24.9639C108.395 24.4204 108.277 23.8656 108.202 23.3044C108.118 22.7039 108.076 22.0983 108.076 21.492C108.074 20.8825 108.11 20.2735 108.185 19.6687C108.251 19.1083 108.373 18.5559 108.55 18.0201V17.9982L108.551 17.9971ZM112.103 19.1108C111.996 19.5011 111.921 19.8989 111.875 20.3008C111.829 20.6958 111.806 21.0932 111.807 21.4909C111.806 21.8962 111.832 22.301 111.885 22.7028C111.937 23.0958 112.01 23.4857 112.104 23.871C112.254 24.5057 112.537 25.1011 112.935 25.6179C113.355 26.1364 113.921 26.5167 114.56 26.7097C114.828 26.7991 115.102 26.8648 115.381 26.9062C115.954 26.9936 116.537 26.9936 117.11 26.9062C117.388 26.8649 117.663 26.7991 117.931 26.7097C118.572 26.5148 119.142 26.135 119.568 25.6179C119.971 25.1056 120.251 24.5081 120.387 23.871C120.481 23.4857 120.553 23.0958 120.605 22.7028C120.658 22.3009 120.684 21.8961 120.684 21.4909C120.684 21.0929 120.657 20.6954 120.605 20.3008C120.553 19.9079 120.48 19.5179 120.387 19.1326C120.249 18.4927 119.97 17.892 119.568 17.3748C119.147 16.8545 118.575 16.477 117.931 16.2939C117.663 16.2046 117.388 16.1388 117.11 16.0974C116.537 16.0102 115.954 16.0102 115.381 16.0974C115.102 16.1388 114.828 16.2046 114.56 16.2939C113.924 16.4858 113.361 16.8665 112.947 17.3857C112.554 17.9074 112.269 18.5009 112.105 19.1326L112.103 19.1108Z" fill="#FB6C00"/>
<path d="M89.3473 17.9971C89.6872 16.9329 90.2846 15.9691 91.0865 15.1912C91.9402 14.4245 92.9793 13.8939 94.101 13.6518C94.5559 13.5499 95.0261 13.4698 95.5116 13.4116C95.9945 13.3536 96.4805 13.3244 96.9669 13.3243C97.4915 13.3101 98.0164 13.332 98.538 13.3898C99.0541 13.4448 99.5651 13.5397 100.067 13.6736C101.177 13.9114 102.206 14.4387 103.047 15.2021C103.85 15.9777 104.439 16.9482 104.755 18.019C104.91 18.5634 105.028 19.1179 105.107 19.6785C105.19 20.2572 105.232 20.8409 105.233 21.4254C105.234 22.0386 105.195 22.6513 105.117 23.2596C105.046 23.8367 104.924 24.4066 104.755 24.9628C104.446 26.0513 103.848 27.036 103.025 27.8124C102.158 28.5727 101.105 29.0896 99.9737 29.3104C99.4793 29.4285 98.9774 29.5124 98.4714 29.5615C97.9568 29.6124 97.4339 29.6383 96.9025 29.639C96.431 29.6388 95.9599 29.6097 95.4919 29.5516C95.0202 29.4938 94.5595 29.4141 94.1031 29.3115C92.9803 29.0878 91.9363 28.5718 91.0767 27.8157C90.2537 27.0392 89.6561 26.0546 89.3473 24.9661C89.1881 24.4226 89.0703 23.8678 88.9946 23.3066C88.9106 22.7061 88.8687 22.1005 88.8691 21.4942C88.8677 20.8847 88.9042 20.2758 88.9782 19.6709C89.0449 19.1106 89.167 18.5584 89.3429 18.0223L89.3473 17.9971ZM92.8967 19.1108C92.7906 19.5011 92.7147 19.8989 92.6696 20.3008C92.6244 20.6959 92.6014 21.0932 92.6008 21.4909C92.6005 21.8962 92.6271 22.3011 92.6805 22.7028C92.7326 23.0958 92.8055 23.4858 92.8989 23.871C93.0495 24.5054 93.3327 25.1007 93.7297 25.6179C94.1509 26.1365 94.718 26.5168 95.3576 26.7097C95.6242 26.7993 95.8982 26.865 96.1765 26.9062C96.7496 26.9935 97.3327 26.9935 97.9059 26.9062C98.184 26.8648 98.458 26.7991 98.7247 26.7097C99.366 26.5146 99.9357 26.1349 100.362 25.6179C100.765 25.1056 101.045 24.5081 101.181 23.871C101.274 23.4856 101.347 23.0957 101.4 22.7028C101.453 22.301 101.48 21.8962 101.479 21.4909C101.479 21.0929 101.452 20.6953 101.4 20.3008C101.347 19.9079 101.275 19.5179 101.181 19.1326C101.043 18.4927 100.764 17.892 100.362 17.3748C99.9409 16.8544 99.3689 16.4769 98.7247 16.2939C98.458 16.2046 98.184 16.1389 97.9059 16.0974C97.6193 16.0538 97.3299 16.0319 97.0401 16.0319C96.751 16.0322 96.4623 16.0541 96.1765 16.0974C95.8983 16.1387 95.6242 16.2044 95.3576 16.2939C94.7206 16.4854 94.157 16.8662 93.7418 17.3857C93.3497 17.9074 93.0637 18.5009 92.9 19.1326L92.8967 19.1108Z" fill="#FB6C00"/>
<path d="M79.2023 13.3264C79.2101 13.334 79.2193 13.34 79.2295 13.3439C79.2396 13.3478 79.2504 13.3497 79.2613 13.3493H80.2232C80.5243 13.3496 80.8253 13.3649 81.125 13.3952C81.6644 13.4264 82.2007 13.4994 82.7288 13.6136C83.2492 13.7238 83.7498 13.9123 84.2137 14.1726C85.011 14.5972 85.6429 15.2768 86.0086 16.1029C86.3633 16.916 86.5529 17.7914 86.5665 18.6784C86.5847 19.4901 86.436 20.2968 86.1298 21.0487C85.8161 21.8152 85.2847 22.473 84.6013 22.9408C84.0107 23.3464 83.3409 23.6221 82.636 23.7498C81.9259 23.8798 81.2076 23.9597 80.4863 23.9889H79.3443L74.9967 23.966V29.6881H71.4102V13.3264H79.2023ZM79.1554 16.2448H74.9978V21.0771H79.365C80.1457 21.0971 80.9197 20.929 81.6217 20.5869C81.9486 20.3968 82.2126 20.1152 82.3814 19.7769C82.5502 19.4385 82.6163 19.0582 82.5716 18.6828C82.6036 17.6347 82.267 16.9697 81.5617 16.6881C80.792 16.395 79.9734 16.2516 79.1499 16.2655L79.1554 16.2448Z" fill="#FB6C00"/>
<path d="M172.754 13.3362V21.1687L179.45 13.3362H183.731L176.918 21.3063L183.803 29.6378H179.236L172.754 21.5312V29.6367H169.181V13.3362H172.754Z" fill="#FB6C00"/>
<path d="M192.759 13.3362H188.974L183.148 26.5786L185.596 29.5472L187.075 25.7543H194.458L196.019 29.6367H199.995L192.759 13.3362ZM188.24 22.849L190.727 16.5821L193.306 22.8479L188.24 22.849Z" fill="#FB6C00"/>
</g>
<defs>
<clipPath id="clip0_1077_393">
<rect width="200" height="40.1269" fill="white" transform="translate(0 0.936523)"/>
</clipPath>
</defs>
</svg>
